<?xml version="1.0" encoding="utf-8"?>
<!-- Generator: Adobe Illustrator 16.0.0, SVG Export Plug-In . SVG Version: 6.00 Build 0)  -->
<!DOCTYPE svg PUBLIC "-//W3C//DTD SVG 1.1//EN" "http://www.w3.org/Graphics/SVG/1.1/DTD/svg11.dtd">
<svg version="1.1" id="Layer_1" xmlns="http://www.w3.org/2000/svg" xmlns:xlink="http://www.w3.org/1999/xlink" x="0px" y="0px"
	 width="544px" height="145px" viewBox="0 0 544 145" enable-background="new 0 0 544 145" xml:space="preserve">
<g>
	<g>
		<g>
			<path fill-rule="evenodd" clip-rule="evenodd" fill="#FFFFFF" d="M246.998,42.926c11.133-3.45,14.177,1.01,11.953,17.124
				c3.088,0.795,7.211-1.325,7.334-4.602c0.593-15.583,20.62-18.483,30.975-8.394c1.201,1.171,2.559,2.234,3.535,3.569
				c0.705,0.966,0.898,2.304,1.699,4.52c-4.662-3.26-8.271-5.787-11.881-8.312c-0.346,0.334-0.691,0.668-1.037,1.004
				c0.293,1.174,0.588,2.347,0.879,3.521c2.326,9.351-4.838,19.106-13.914,18.329c-2.621-0.225-5.419-2.105-7.495-3.947
				c-2.021-1.799-3.413-2.195-6.074-1.322c-6.538,2.152-12.659,6.006-19.936,5.455c-1.153-0.09-2.329-0.188-3.44-0.484
				c-6.275-1.656-6.78-2.395-6.259-8.803c0.114-1.417,0.265-2.83,0.378-4.245c0.407-5.048-1.117-7.074-6.919-8.803
				c0,1.683-0.246,3.301,0.038,4.816c1.961,10.464-7.691,20.289-17.345,17.162c-1.497-0.486-3.506,0.359-5.212,0.828
				c-1.854,0.51-3.589,1.453-5.447,1.938c-8.197,2.131-13.218-0.797-15.513-8.998c-0.695-2.485-1.127-5.044-1.875-7.512
				c-0.628-2.082-1.298-4.226-2.413-6.062c-0.63-1.041-2.261-2.169-3.314-2.055c-0.953,0.102-2.189,1.711-2.5,2.87
				c-0.898,3.356-1.308,6.84-2.069,10.238c-0.533,2.381-1.08,4.811-2.048,7.03c-4.271,9.781-14.666,11.1-21.34,2.715
				c-6.402-8.043-6.831-17.377-3.756-26.447c6.365-18.78,25.071-27.377,42.434-25.103c4.021,0.524,8.327,2.306,11.556,4.755
				c6.694,5.075,5.917,13.63-1.344,17.937c-3.163,1.877-6.856,2.852-10.307,4.242c-1.116,0.448-2.22,0.921-4.217,1.752
				c5.867,3.546,7.106,8.867,8.705,14.056c1.739,5.652,7.056,7.092,11.345,3.09c0.667-0.627,0.97-2.105,0.804-3.082
				c-1.202-7.09-0.536-13.672,6.059-17.867c6.92-4.402,14.045-3.39,20.861,0.625c4.888,2.879,5.05,2.634,5.936-2.997
				c1.262-8,2.359-16.147,7.067-23.09c1.199-1.769,2.735-3.503,4.512-4.642c4.869-3.129,9.867-0.401,10.613,5.453
				c1.015,7.975-3.337,13.779-7.713,19.595C249.249,40.199,248.104,41.547,246.998,42.926z M149.576,55.066
				c1.173,3.73,1.884,7.711,3.707,11.09c0.956,1.768,3.892,3.43,5.882,3.373c1.645-0.047,4.009-2.414,4.654-4.244
				c1.384-3.937,1.932-8.181,2.697-12.323c0.591-3.204,0.434-6.116-3.188-7.758c-0.803-0.363-1.534-1.78-1.528-2.709
				c0.003-0.579,1.413-1.563,2.258-1.643c2.657-0.252,3.808-1.689,4.263-4.14c0.157-0.843,0.629-1.911,1.297-2.312
				c1.437-0.858,3.092-1.351,4.656-1.994c0.424,1.312,1.036,2.601,1.214,3.945c0.149,1.113-0.649,2.489-0.241,3.394
				c0.507,1.119,2.02,2.799,2.757,2.638c4.364-0.939,8.76-2.017,12.876-3.702c2.596-1.066,4.294-3.843,3.34-6.713
				c-0.735-2.214-2.306-4.723-4.233-5.819c-2.332-1.321-5.421-1.71-8.2-1.78C163.736,23.923,150.813,36.549,149.576,55.066z
				 M253.452,53.341c-0.03-4.826-2.965-6.896-7.24-5.162c-3.324,1.349-4.99,3.925-5.633,7.305c-0.335,1.771-0.477,3.592-0.972,5.313
				c-0.915,3.167,0.523,4.323,3.43,4.461C249.675,65.572,253.5,61.198,253.452,53.341z M284.662,54.069
				c-1.492-2.534-0.707-5.819-2.539-7.148c-2.254-1.632-4.734,0.013-6.223,2.169c-2.602,3.771-3.534,7.974-2.158,12.438
				c1.072,3.484,5.326,4.703,7.537,1.842C283.352,60.679,282.865,57.748,284.662,54.069z M209.37,57.5
				c1.658,2.432,1.336,5.255,3.197,6.763c0.901,0.73,3.61,0.209,4.856-0.666c3.002-2.111,4.486-11.104,2.811-14.569
				c-1.49-3.081-5.133-3.838-7.076-1.08C211.159,50.787,211.288,53.757,209.37,57.5z M241.506,40.438
				c0.757-0.3,1.331-0.352,1.622-0.668c4.867-5.308,7.954-11.557,9.332-18.589c0.177-0.893-1.053-2.061-1.632-3.102
				c-1.106,0.675-2.695,1.085-3.236,2.069C244.187,26.354,242.095,32.998,241.506,40.438z"/>
		</g>
		<g>
			<path fill-rule="evenodd" clip-rule="evenodd" fill="#FFFFFF" d="M526.399,58.456c1.047,2.971,0.6,5.058-2.063,6.439
				c-7.261,3.768-14.963,5.797-23.131,4.941c-2.201-0.23-4.729-1.566-6.242-3.195c-2.094-2.254-4.053-2.311-6.094-0.799
				c-6.687,4.947-13.347,5.594-20.396,0.748c-0.792-0.543-2.429-0.215-3.542,0.135c-2.328,0.73-4.503,2.055-6.863,2.551
				c-2.205,0.461-5.261,1.105-6.724,0.021c-4.119-3.049-7.611-1.309-11.501-0.012c-4.805,1.602-6.875,0.324-7.444-4.691
				c-0.39-3.39-0.073-6.859-0.935-10.75c-0.938,1.045-2.051,1.979-2.776,3.153c-2.033,3.294-3.698,6.834-5.941,9.967
				c-0.945,1.32-3.246,2.834-4.44,2.5c-1.249-0.346-2.451-2.719-2.71-4.363c-0.395-2.504,0.014-5.141,0.123-7.72
				c0.218-4.945-3.402-9.043-9.351-10.008c0.353,1.621,0.625,3.062,0.98,4.48c2.29,9.137-5.529,18.898-14.518,17.861
				c-2.066-0.238-3.968-1.646-6.024-2.24c-1.526-0.438-3.282-0.863-4.759-0.523c-2.874,0.658-5.558,2.143-8.432,2.77
				c-5.681,1.234-9.133-1.674-8.099-7.33c1.135-6.184,2.932-12.294,5.055-18.215c0.519-1.44,3.35-2.431,5.29-2.879
				c2.325-0.538,2.823,1.042,2.185,3.117c-1.475,4.793-3.028,9.567-4.271,14.423c-0.563,2.209-1.731,5.134,2.014,5.933
				c2.688,0.572,6.398-2.354,6.733-5.01c0.335-2.662,0.306-5.447,1.117-7.96c4.08-12.676,18.937-12.756,27.376-7.057
				c0.537,0.362,1.037,0.772,1.553,1.158c3.8,2.842,3.854,2.86,5.544-1.731c0.854-2.315,2.59-3.675,4.689-2.754
				c1.073,0.469,1.688,2.812,1.833,4.371c0.173,1.873-0.417,3.811-0.58,5.728c-0.039,0.441,0.3,0.918,0.794,2.296
				c1.224-1.822,2.079-3.089,2.924-4.362c1.486-2.237,2.659-4.808,4.564-6.597c1.142-1.073,3.797-1.71,5.087-1.099
				c1.188,0.562,2.094,3.095,2.003,4.695c-0.195,3.445-1.229,6.837-1.684,10.28c-0.216,1.628-0.187,3.424,0.305,4.958
				c0.315,0.979,1.59,2.119,2.6,2.309c2.274,0.428,7.408-3.891,8.074-6.196c1.28-4.44,2.514-8.909,4.164-13.216
				c0.497-1.304,2.144-2.615,3.535-3.044c3.733-1.154,5.115,0.459,3.945,4.233c-1.22,3.924-2.529,7.818-3.709,11.754
				c-0.799,2.669-2.205,5.812,1.623,7.164c2.932,1.031,7.043-2.699,7.643-6.118c0.575-3.275,1.024-6.677,2.284-9.709
				c2.757-6.632,9.922-9.745,15.831-7.337c4.642,1.896,5.852,6.778,2.423,10.271c-0.715,0.726-2.068,1.362-2.96,1.188
				c-0.601-0.115-0.925-1.729-1.336-2.686c-0.595-1.38-1.158-2.771-1.736-4.156c-1.467,0.857-3.614,1.368-4.268,2.644
				c-1.381,2.699-2.536,5.749-2.795,8.74c-0.508,5.849,4.959,9.326,10.229,6.652c2.614-1.326,4.736-3.672,7.396-4.854
				c7.756-3.444,11.969-10.601,17.706-16.161c0.808-0.779,1.863-1.82,2.811-1.823c1.782-0.006,3.564,0.657,5.35,1.04
				c-0.682,1.395-1.395,2.776-2.038,4.185c-0.663,1.446-1.801,2.931-1.775,4.382c0.06,3.29,0.571,6.599,1.236,9.832
				c0.129,0.622,1.99,1.501,2.75,1.271C520.087,61.116,523.021,59.794,526.399,58.456z M401.335,52.859
				c-1.643-2.27-1.133-5.394-3.091-6.323c-2.854-1.354-5.435,1.097-6.289,3.633c-1.145,3.401-1.672,7.144-1.649,10.734
				c0.01,1.345,2.097,3.353,3.614,3.802c1.274,0.381,3.833-0.615,4.522-1.775C400.212,59.955,399.704,56.808,401.335,52.859z
				 M508.328,59.837c-0.707-1.902-1.215-3.268-1.726-4.629c-1.409,0.656-2.921,1.162-4.205,2.012
				c-1.375,0.911-2.58,2.103-3.784,3.249c-1.854,1.767-1.767,3.675,0.651,4.462c1.922,0.627,4.588,1.004,6.143,0.123
				C506.911,64.203,507.423,61.598,508.328,59.837z"/>
		</g>
		<g>
			<path fill-rule="evenodd" clip-rule="evenodd" fill="#FFFFFF" d="M349.411,44.561c2.743,2.389,6.097,4.241,7.875,7.08
				c3.45,5.502,1.243,13.16-4.73,16.835c-3.306,2.037-7.232,3.762-11.033,4.154c-7.589,0.785-15.265,0.174-22.423-2.883
				c-1.26-0.539-2.615-2.428-2.744-3.805c-0.885-9.551,1.313-18.768,3.996-27.81c1.031-3.475,2.748-7.145,6.994-8.061
				c1.137-0.246,2.811-0.071,3.553,0.632c0.496,0.467,0.074,2.362-0.436,3.37c-4.631,9.198-4.854,19.174-5.057,29.104
				c-0.025,1.254,1.771,3.336,3.08,3.682c5.832,1.547,11.711,1.758,17.373-1.063c4.098-2.041,6.473-5.653,6.22-9.85
				c-0.265-4.454-3.529-5.997-7.098-7.141c-2.455-0.786-5.08-1.152-7.411-2.193c-1.163-0.518-1.84-2.128-2.736-3.245
				c1.21-0.666,2.358-1.719,3.642-1.927c4.034-0.656,8.141-0.877,12.177-1.524c1.331-0.21,2.639-1.066,3.782-1.873
				c4.482-3.16,4.054-8.591-0.975-10.716c-8.328-3.52-17.057-3.659-25.882-2.485c-6.398,0.851-11.908,3.087-15.395,9.039
				c-0.592,1.009-2.371,1.321-3.604,1.957c-0.18-1.449-0.783-2.998-0.471-4.33c1.916-8.183,8.367-11.255,15.633-12.413
				c12.372-1.974,24.508-0.871,35.752,5.257c5.462,2.979,7.56,7.292,4.895,11.67c-1.668,2.741-4.945,4.714-7.862,6.412
				C354.381,43.683,351.65,43.932,349.411,44.561z"/>
		</g>
	</g>
	<g>
		<path fill-rule="evenodd" clip-rule="evenodd" fill="#FFFFFF" d="M460.119,36.448c-2.993-0.013-5.9-2.28-5.775-4.497
			c0.127-2.221,3.347-4.564,6.444-4.449c2.692,0.103,5.282,0.678,5.292,4.196C466.086,34.423,463.437,36.463,460.119,36.448z"/>
	</g>
	<g>
		<path fill-rule="evenodd" clip-rule="evenodd" fill="#FFFFFF" d="M377.04,36.375c-2.214-0.139-4.677-0.811-4.924-4.147
			c-0.189-2.539,2.615-4.742,6.016-4.709c2.632,0.025,5.38,0.25,5.619,3.816C383.932,34.028,381.026,36.335,377.04,36.375z"/>
	</g>
</g>
<path fill-rule="evenodd" clip-rule="evenodd" fill="#EC8F5D" d="M96.346,22.256c0.552,1.931-0.696,3.383-1.313,4.94
	c-3.044,7.683-6.309,15.278-9.353,22.961c-2.069,5.222-4.629,10.267-5.923,15.783c-0.248,1.057-0.492,2.081,0.12,3.103
	c1.067,1.784,2.655,1.966,4.066,0.439c1.756-1.896,2.858-4.234,4.235-6.382c2.461-3.833,4.775-7.76,7.154-11.646
	c3.105-5.077,6.077-10.233,9.146-15.331c2.082-3.458,4.942-3.317,7.094-2.477c2.358,0.922,3.187,4.242,1.739,7.172
	c-1.678,3.398-3.382,6.79-5.141,10.15c-1.42,2.715-2.686,5.555-4.019,8.339c-2.119,4.427-4.347,8.802-6.489,13.22
	c-0.455,0.938-1.085,1.925-0.706,3.023c0.627,1.817,2.4,2.219,4.097,0.986c2.342-1.705,3.962-4.09,5.823-6.244
	c3.763-4.354,7.458-8.765,11.215-13.123c1.752-2.032,4.037-2.316,5.73-0.811c1.377,1.222,1.41,3.359-0.06,5.478
	c-5.778,8.336-11.595,16.645-17.393,24.971c-1.292,1.853-2.555,3.729-3.848,5.587c-0.323,0.46-0.515,1.125-1.316,0.985
	c-0.81-0.141-0.705-0.802-0.863-1.367c-2.382-8.442-7.089-14.864-15.729-17.733c-2.738-0.909-5.628-0.891-8.452-0.57
	c-2.703,0.307-4.352-0.732-5.884-2.924c-3.958-5.66-9.647-8.478-16.475-8.48c-5.344-0.001-4.656-2.233-3.679-5.537
	c1.611-5.456,3.063-10.959,4.614-16.435c1.583-5.589,3.236-11.16,4.789-16.758c0.43-1.549,0.85-3.094,1.481-4.574
	c0.958-2.249,3.529-3.795,5.688-3.397c2.126,0.394,4.233,3.143,4.277,5.266c0.05,2.401-0.821,4.56-1.417,6.783
	c-2.293,8.554-4.706,17.078-7.022,25.626c-0.517,1.906-0.421,3.891-0.239,5.844c0.095,1.03,0.761,1.776,1.706,2.103
	c0.949,0.329,1.854,0.11,2.618-0.641c0.91-0.894,1.507-2.01,2.03-3.113c3.148-6.645,6.291-13.294,9.279-20.011
	c2.244-5.045,4.503-10.081,6.959-15.023c0.902-1.815,1.668-3.755,3.38-5.079c2.227-1.722,4.98-1.512,6.667,0.74
	C95.836,19.307,96.967,20.531,96.346,22.256z"/>
<path fill-rule="evenodd" clip-rule="evenodd" fill="#CB639B" d="M33.301,111.319c-1.758-1.298-1.829-3.391-2.382-5.22
	c-1.86-6.154-3.786-12.308-3.376-18.872c0.597-9.538,5.092-16.405,14.224-19.588c2.422-0.846,4.894-1.556,7.447-1.652
	c6.952-0.263,13.159,1.482,17.807,7.09c0.552,0.667,0.767,1.45,1.054,2.233c0.979,2.67,1.637,4.139,5.368,3.013
	c3.871-1.169,7.763-1.114,11.509,0.541c6.174,2.729,9.765,7.673,11.326,14.054c1.709,6.987,0.512,13.597-3.439,19.64
	c-2.324,3.553-5.412,6.31-9.115,8.393c-0.658,0.371-1.349,0.432-2.053,0.528c-0.352-0.247-0.674-0.541-0.667-1
	c0.03-2.267-0.243-4.546,0.137-6.795c0.447-2.645-0.351-3.913-2.952-4.575c-2.089-0.532-4.145-0.082-6.222,0.071
	c-3.217,0.234-3.163,0.185-3.245,3.44c-0.12,4.713,0.345,9.435-0.302,14.137c-0.476,0.22-0.952,0.439-1.428,0.658
	c-1.242-0.392-1.053-1.409-1.05-2.364c0.021-7.889,0.046-15.779,0.042-23.67c0-2.335-0.827-3.325-2.895-3.18
	c-3.287,0.229-6.553,0.198-9.839-0.009c-2.167-0.136-2.74,0.59-2.749,2.759c-0.007,1.734,0.07,3.472-0.022,5.199
	c-0.081,1.525,0.432,2.284,2.027,2.531c1.892,0.291,2.342,1.237,2.077,3.198c-0.558,4.127-0.958,8.28-1.592,12.396
	c-0.442,2.865-0.145,5.86-1.447,8.58c-0.59,0.506-1.221,0.891-2.05,0.696c0.95-5.919,1.406-11.907,2.517-17.806
	c0.672-3.571-0.14-4.494-3.69-4.332c-4.763,0.002-9.526,0.002-14.289,0.005C33.787,111.388,33.544,111.354,33.301,111.319z
	 M75.256,105.97c4.501,0.009,6.806-2.143,6.814-6.358c0.009-4.193-2.397-6.39-6.688-6.613c-4.207-0.219-6.853,3.387-6.886,6.633
	C68.458,103.203,71.06,106.329,75.256,105.97z M47.649,99.61c0.009-3.167-1.538-5.984-3.723-6.782
	c-3.298-1.202-6.693,0.202-8.228,3.402c-1.57,3.272-0.35,7.86,2.525,9.494C42.835,108.345,47.632,105.232,47.649,99.61z
	 M58.516,95.193c3.748-0.007,5.799-1.11,6.655-3.643c0.878-2.592,0.415-4.949-1.456-6.951c-2.026-2.169-4.635-2.376-7.271-1.682
	c-3.423,0.901-4.858,3.959-4.159,8.316C52.723,93.958,54.676,95.197,58.516,95.193z"/>
<path fill-rule="evenodd" clip-rule="evenodd" fill="#FDFBFD" d="M51.542,132.855c1.303-2.72,1.005-5.715,1.447-8.58
	c0.634-4.115,1.034-8.269,1.592-12.396c0.265-1.961-0.186-2.907-2.077-3.198c-1.596-0.247-2.108-1.006-2.027-2.531
	c0.093-1.728,0.016-3.465,0.022-5.199c0.009-2.169,0.583-2.895,2.749-2.759c3.286,0.207,6.552,0.238,9.839,0.009
	c2.068-0.146,2.895,0.845,2.895,3.18c0.004,7.891-0.021,15.781-0.042,23.67c-0.002,0.955-0.191,1.973,1.05,2.364
	c-4.079,2.223-8.571,3.321-12.964,4.664C53.204,132.331,52.508,133.077,51.542,132.855z"/>
<path fill-rule="evenodd" clip-rule="evenodd" fill="#FDFBFD" d="M33.301,111.319c0.243,0.034,0.486,0.068,0.729,0.1
	c0.508,0.458,1.131,0.271,1.707,0.274c3.328,0.018,6.656,0.032,9.983-0.004c0.865-0.011,1.784,0.281,2.599-0.275
	c3.55-0.162,4.362,0.761,3.69,4.332c-1.11,5.898-1.566,11.887-2.517,17.806c-1.623,0.566-3.244,1.143-4.873,1.693
	c-1.054,0.357-1.896,0.063-2.367-0.97c-3.321-7.281-7.04-14.398-9.146-22.18C33.019,111.766,33.022,111.525,33.301,111.319z"/>
<path fill-rule="evenodd" clip-rule="evenodd" fill="#EC8F5D" d="M21.084,50.727c1.997-0.343,3.062,1.17,3.949,2.612
	c2.656,4.315,4.546,9.031,6.839,13.54c0.322,0.634,0.169,1.052-0.277,1.579c-1.107,1.302-2.164,2.652-3.173,4.035
	c-1.877,2.572-3.104,5.48-4.276,8.417c-0.133,0.335-0.034,0.964-0.639,0.915c-0.508-0.038-0.54-0.558-0.667-0.946
	c-2.016-6.146-4.035-12.292-6.047-18.439c-0.499-1.522-1.049-3.032-1.448-4.581C14.436,54.333,17.291,50.74,21.084,50.727z"/>
<path fill-rule="evenodd" clip-rule="evenodd" fill="#FDFBFD" d="M68.42,126.757c0.647-4.702,0.182-9.424,0.302-14.137
	c0.082-3.256,0.028-3.206,3.245-3.44c2.078-0.153,4.133-0.604,6.222-0.071c2.601,0.662,3.399,1.931,2.952,4.575
	c-0.38,2.249-0.107,4.528-0.137,6.795c-0.007,0.459,0.315,0.753,0.667,1c-3.301,2.076-7.08,3.043-10.622,4.559
	C70.229,126.388,69.459,127.131,68.42,126.757z"/>
<path fill-rule="evenodd" clip-rule="evenodd" fill="#FDFBFD" d="M75.256,105.97c-4.196,0.359-6.797-2.767-6.76-6.339
	c0.033-3.246,2.679-6.852,6.886-6.633c4.291,0.224,6.697,2.42,6.688,6.613C82.062,103.827,79.757,105.979,75.256,105.97z"/>
<path fill-rule="evenodd" clip-rule="evenodd" fill="#FDFBFD" d="M47.649,99.61c-0.017,5.622-4.814,8.734-9.426,6.114
	c-2.875-1.634-4.096-6.222-2.525-9.494c1.535-3.2,4.93-4.604,8.228-3.402C46.111,93.626,47.658,96.443,47.649,99.61z"/>
<path fill-rule="evenodd" clip-rule="evenodd" fill="#FDFBFD" d="M58.516,95.193c-3.84,0.004-5.793-1.235-6.23-3.959
	c-0.699-4.357,0.735-7.415,4.159-8.316c2.636-0.694,5.245-0.487,7.271,1.682c1.871,2.002,2.333,4.359,1.456,6.951
	C64.315,94.083,62.263,95.187,58.516,95.193z"/>
<path fill-rule="evenodd" clip-rule="evenodd" fill="#F0EFE5" d="M48.319,111.414c-0.815,0.557-1.734,0.265-2.599,0.275
	c-3.327,0.036-6.655,0.021-9.983,0.004c-0.575-0.003-1.199,0.184-1.707-0.274C38.793,111.416,43.556,111.416,48.319,111.414z"/>
<g>
	<path fill="#C6C4C6" d="M212.851,112.082h-4.465l-1.221,5.074h4.24v2.698h-4.882l-1.51,6.231h-2.891l1.542-6.231h-4.657
		l-1.51,6.231h-2.891l1.574-6.231h-3.629v-2.698h4.24l1.221-5.074h-4.015v-2.506h4.657l1.51-6.295h2.891l-1.542,6.295h4.625
		l1.542-6.295h2.891l-1.574,6.295h3.854V112.082z M204.307,117.156l1.221-5.074h-4.658l-1.22,5.074H204.307z"/>
	<path fill="#C6C4C6" d="M220.206,110.026v16.06h-3.597v-22.805h2.826l13.041,16.445v-16.413h3.63v22.772h-2.987L220.206,110.026z"
		/>
	<path fill="#C6C4C6" d="M248.183,126.407c-1.307,0-2.495-0.23-3.565-0.69c-1.071-0.461-1.986-1.087-2.746-1.879
		c-0.76-0.792-1.349-1.713-1.767-2.763c-0.417-1.049-0.626-2.162-0.626-3.341c0-1.177,0.209-2.296,0.626-3.356
		c0.417-1.06,1.006-1.991,1.767-2.794c0.76-0.803,1.675-1.435,2.746-1.896c1.07-0.46,2.27-0.69,3.598-0.69
		c1.306,0,2.489,0.236,3.549,0.707c1.06,0.471,1.964,1.098,2.714,1.879c0.749,0.782,1.322,1.691,1.718,2.73
		c0.396,1.038,0.594,2.125,0.594,3.26c0,0.257-0.011,0.498-0.032,0.723s-0.043,0.412-0.064,0.563h-13.458
		c0.064,0.749,0.241,1.424,0.53,2.023s0.664,1.119,1.124,1.558c0.46,0.439,0.985,0.776,1.574,1.012
		c0.589,0.236,1.205,0.354,1.847,0.354c0.471,0,0.937-0.059,1.397-0.177c0.46-0.117,0.883-0.289,1.269-0.514
		c0.385-0.226,0.728-0.498,1.028-0.819c0.299-0.321,0.535-0.675,0.707-1.06l3.019,0.867c-0.578,1.264-1.537,2.296-2.875,3.1
		C251.518,126.006,249.96,126.407,248.183,126.407z M253.29,116.418c-0.064-0.707-0.241-1.359-0.53-1.959s-0.659-1.108-1.108-1.526
		c-0.45-0.417-0.975-0.743-1.574-0.979c-0.6-0.235-1.231-0.354-1.895-0.354c-0.664,0-1.291,0.118-1.879,0.354
		c-0.589,0.236-1.108,0.563-1.558,0.979c-0.45,0.418-0.814,0.927-1.092,1.526c-0.279,0.6-0.45,1.252-0.514,1.959H253.29z"/>
	<path fill="#C6C4C6" d="M263.953,126.086l-6.424-16.799h3.629l4.818,13.812l4.85-13.812h3.341l-6.424,16.799H263.953z"/>
	<path fill="#C6C4C6" d="M283.707,126.407c-1.307,0-2.494-0.23-3.564-0.69c-1.071-0.461-1.986-1.087-2.746-1.879
		c-0.761-0.792-1.35-1.713-1.768-2.763c-0.417-1.049-0.626-2.162-0.626-3.341c0-1.177,0.209-2.296,0.626-3.356
		c0.418-1.06,1.007-1.991,1.768-2.794c0.76-0.803,1.675-1.435,2.746-1.896c1.07-0.46,2.27-0.69,3.598-0.69
		c1.305,0,2.488,0.236,3.549,0.707s1.965,1.098,2.713,1.879c0.75,0.782,1.322,1.691,1.719,2.73c0.396,1.038,0.596,2.125,0.596,3.26
		c0,0.257-0.012,0.498-0.033,0.723s-0.043,0.412-0.064,0.563h-13.458c0.064,0.749,0.241,1.424,0.53,2.023s0.664,1.119,1.124,1.558
		c0.46,0.439,0.985,0.776,1.573,1.012c0.59,0.236,1.205,0.354,1.848,0.354c0.471,0,0.937-0.059,1.396-0.177
		c0.461-0.117,0.884-0.289,1.27-0.514c0.385-0.226,0.728-0.498,1.027-0.819s0.535-0.675,0.707-1.06l3.02,0.867
		c-0.578,1.264-1.537,2.296-2.875,3.1C287.043,126.006,285.484,126.407,283.707,126.407z M288.814,116.418
		c-0.064-0.707-0.24-1.359-0.529-1.959s-0.659-1.108-1.109-1.526c-0.449-0.417-0.975-0.743-1.573-0.979
		c-0.6-0.235-1.231-0.354-1.896-0.354s-1.29,0.118-1.879,0.354c-0.589,0.236-1.107,0.563-1.558,0.979
		c-0.45,0.418-0.813,0.927-1.092,1.526s-0.45,1.252-0.515,1.959H288.814z"/>
	<path fill="#C6C4C6" d="M304.65,112.339c-1.371,0.043-2.586,0.358-3.646,0.947s-1.814,1.43-2.264,2.521v10.278h-3.533v-16.799
		h3.275v3.758c0.578-1.156,1.334-2.082,2.264-2.778c0.932-0.695,1.934-1.075,3.004-1.14c0.215,0,0.391,0,0.529,0
		c0.141,0,0.264,0.011,0.371,0.032V112.339z"/>
	<path fill="#C6C4C6" d="M307.668,126.086v-22.805h15.193v3.18h-11.596v6.81h9.699v2.986h-9.699v9.829H307.668z"/>
	<path fill="#C6C4C6" d="M332.336,126.407c-1.307,0-2.494-0.23-3.564-0.69c-1.072-0.461-1.986-1.087-2.746-1.879
		c-0.762-0.792-1.35-1.713-1.768-2.763c-0.418-1.049-0.625-2.162-0.625-3.341c0-1.177,0.207-2.296,0.625-3.356
		c0.418-1.06,1.006-1.991,1.768-2.794c0.76-0.803,1.674-1.435,2.746-1.896c1.07-0.46,2.27-0.69,3.598-0.69
		c1.305,0,2.488,0.236,3.549,0.707s1.965,1.098,2.713,1.879c0.75,0.782,1.322,1.691,1.719,2.73c0.396,1.038,0.596,2.125,0.596,3.26
		c0,0.257-0.012,0.498-0.033,0.723s-0.043,0.412-0.064,0.563h-13.457c0.063,0.749,0.24,1.424,0.529,2.023s0.664,1.119,1.125,1.558
		c0.459,0.439,0.984,0.776,1.572,1.012c0.59,0.236,1.205,0.354,1.848,0.354c0.471,0,0.936-0.059,1.396-0.177
		c0.461-0.117,0.885-0.289,1.27-0.514c0.385-0.226,0.729-0.498,1.027-0.819c0.301-0.321,0.535-0.675,0.707-1.06l3.02,0.867
		c-0.578,1.264-1.537,2.296-2.875,3.1C335.672,126.006,334.113,126.407,332.336,126.407z M337.443,116.418
		c-0.064-0.707-0.24-1.359-0.529-1.959s-0.658-1.108-1.109-1.526c-0.449-0.417-0.975-0.743-1.574-0.979
		c-0.6-0.235-1.23-0.354-1.895-0.354s-1.289,0.118-1.879,0.354c-0.59,0.236-1.107,0.563-1.557,0.979
		c-0.451,0.418-0.814,0.927-1.094,1.526c-0.277,0.6-0.449,1.252-0.514,1.959H337.443z"/>
	<path fill="#C6C4C6" d="M351.447,126.407c-1.307,0-2.496-0.23-3.566-0.69c-1.07-0.461-1.986-1.087-2.746-1.879
		s-1.35-1.713-1.766-2.763c-0.418-1.049-0.627-2.162-0.627-3.341c0-1.177,0.209-2.296,0.627-3.356
		c0.416-1.06,1.006-1.991,1.766-2.794s1.676-1.435,2.746-1.896c1.07-0.46,2.27-0.69,3.598-0.69c1.307,0,2.49,0.236,3.549,0.707
		c1.061,0.471,1.965,1.098,2.715,1.879c0.75,0.782,1.322,1.691,1.719,2.73c0.396,1.038,0.594,2.125,0.594,3.26
		c0,0.257-0.012,0.498-0.031,0.723c-0.021,0.225-0.045,0.412-0.064,0.563H346.5c0.064,0.749,0.24,1.424,0.529,2.023
		s0.664,1.119,1.125,1.558c0.461,0.439,0.984,0.776,1.574,1.012c0.588,0.236,1.205,0.354,1.846,0.354
		c0.471,0,0.938-0.059,1.398-0.177c0.459-0.117,0.883-0.289,1.268-0.514c0.387-0.226,0.729-0.498,1.029-0.819
		c0.299-0.321,0.535-0.675,0.705-1.06l3.02,0.867c-0.578,1.264-1.535,2.296-2.875,3.1
		C354.781,126.006,353.225,126.407,351.447,126.407z M356.553,116.418c-0.063-0.707-0.24-1.359-0.529-1.959
		s-0.658-1.108-1.107-1.526c-0.449-0.417-0.975-0.743-1.574-0.979c-0.6-0.235-1.232-0.354-1.895-0.354
		c-0.664,0-1.291,0.118-1.879,0.354c-0.59,0.236-1.109,0.563-1.559,0.979c-0.449,0.418-0.814,0.927-1.092,1.526
		c-0.279,0.6-0.449,1.252-0.514,1.959H356.553z"/>
	<path fill="#C6C4C6" d="M362.979,102.639h3.533v18.598c0,0.621,0.16,1.107,0.48,1.461c0.322,0.354,0.771,0.53,1.35,0.53
		c0.234,0,0.508-0.043,0.818-0.129c0.311-0.085,0.605-0.182,0.885-0.289l0.514,2.763c-0.514,0.235-1.125,0.423-1.832,0.562
		c-0.705,0.14-1.338,0.209-1.895,0.209c-1.221,0-2.168-0.332-2.842-0.995c-0.676-0.664-1.012-1.606-1.012-2.827V102.639z"/>
	<path fill="#C6C4C6" d="M390.986,120.208c0,0.921-0.188,1.745-0.563,2.474c-0.375,0.728-0.879,1.344-1.51,1.847
		s-1.375,0.889-2.232,1.156c-0.855,0.268-1.766,0.401-2.73,0.401h-10.889v-22.805h11.756c0.793,0,1.51,0.171,2.152,0.514
		s1.189,0.787,1.639,1.333s0.797,1.167,1.043,1.862c0.246,0.696,0.371,1.397,0.371,2.104c0,1.113-0.285,2.157-0.852,3.132
		c-0.568,0.975-1.377,1.697-2.426,2.168c1.307,0.385,2.34,1.087,3.1,2.104C390.605,117.516,390.986,118.752,390.986,120.208z
		 M376.66,106.396v6.713h6.617c0.449,0,0.861-0.085,1.236-0.257c0.375-0.171,0.707-0.401,0.996-0.69s0.514-0.637,0.674-1.044
		c0.162-0.406,0.242-0.856,0.242-1.349c0-0.985-0.279-1.794-0.836-2.426c-0.557-0.631-1.264-0.947-2.119-0.947H376.66z
		 M387.293,119.533c0-0.471-0.08-0.92-0.242-1.349c-0.16-0.428-0.375-0.803-0.643-1.124s-0.594-0.578-0.979-0.771
		c-0.387-0.192-0.803-0.289-1.254-0.289h-7.516v6.971h7.291c0.471,0,0.91-0.091,1.318-0.273c0.406-0.182,0.76-0.428,1.059-0.738
		c0.301-0.311,0.535-0.675,0.707-1.093C387.207,120.449,387.293,120.005,387.293,119.533z"/>
	<path fill="#C6C4C6" d="M403.736,112.339c-1.371,0.043-2.586,0.358-3.645,0.947c-1.061,0.589-1.816,1.43-2.266,2.521v10.278h-3.533
		v-16.799h3.277v3.758c0.578-1.156,1.332-2.082,2.264-2.778c0.932-0.695,1.932-1.075,3.004-1.14c0.213,0,0.391,0,0.529,0
		s0.262,0.011,0.369,0.032V112.339z"/>
	<path fill="#C6C4C6" d="M413.02,126.407c-1.328,0-2.521-0.236-3.58-0.707c-1.061-0.471-1.965-1.103-2.715-1.895
		s-1.328-1.719-1.734-2.778c-0.406-1.061-0.609-2.168-0.609-3.324c0-1.157,0.203-2.265,0.609-3.325
		c0.406-1.06,0.99-1.985,1.75-2.778c0.76-0.792,1.67-1.424,2.73-1.895s2.242-0.707,3.549-0.707s2.49,0.236,3.551,0.707
		c1.059,0.471,1.969,1.103,2.729,1.895c0.76,0.793,1.344,1.719,1.752,2.778c0.406,1.061,0.609,2.168,0.609,3.325
		c0,1.156-0.203,2.264-0.609,3.324c-0.408,1.06-0.992,1.986-1.752,2.778s-1.67,1.424-2.729,1.895
		C415.51,126.171,414.326,126.407,413.02,126.407z M408.01,117.734c0,0.814,0.129,1.563,0.385,2.249
		c0.258,0.686,0.611,1.279,1.061,1.782c0.449,0.504,0.979,0.899,1.59,1.188c0.609,0.289,1.268,0.434,1.975,0.434
		s1.365-0.145,1.977-0.434c0.609-0.289,1.139-0.69,1.59-1.204c0.449-0.514,0.803-1.113,1.059-1.799
		c0.258-0.686,0.387-1.435,0.387-2.248c0-0.792-0.129-1.537-0.387-2.232c-0.256-0.696-0.609-1.301-1.059-1.815
		c-0.451-0.514-0.98-0.915-1.59-1.204c-0.611-0.289-1.27-0.434-1.977-0.434c-0.686,0-1.332,0.15-1.943,0.449
		c-0.609,0.301-1.139,0.707-1.59,1.221c-0.449,0.514-0.809,1.119-1.076,1.815C408.143,116.198,408.01,116.942,408.01,117.734z"/>
	<path fill="#C6C4C6" d="M436.5,126.086l-5.365-7.741l-2.793,2.634v5.107h-3.533v-23.447h3.533v14.871l7.709-8.19h3.854l-6.52,7.034
		l6.873,9.732H436.5z"/>
	<path fill="#C6C4C6" d="M449.154,126.407c-1.307,0-2.496-0.23-3.566-0.69c-1.07-0.461-1.986-1.087-2.746-1.879
		s-1.35-1.713-1.766-2.763c-0.418-1.049-0.627-2.162-0.627-3.341c0-1.177,0.209-2.296,0.627-3.356
		c0.416-1.06,1.006-1.991,1.766-2.794s1.676-1.435,2.746-1.896c1.07-0.46,2.27-0.69,3.598-0.69c1.307,0,2.49,0.236,3.549,0.707
		c1.061,0.471,1.965,1.098,2.715,1.879c0.75,0.782,1.322,1.691,1.719,2.73c0.396,1.038,0.594,2.125,0.594,3.26
		c0,0.257-0.012,0.498-0.031,0.723c-0.021,0.225-0.045,0.412-0.064,0.563h-13.459c0.064,0.749,0.24,1.424,0.529,2.023
		s0.664,1.119,1.125,1.558c0.461,0.439,0.984,0.776,1.574,1.012c0.588,0.236,1.205,0.354,1.846,0.354
		c0.471,0,0.938-0.059,1.398-0.177c0.459-0.117,0.883-0.289,1.268-0.514c0.387-0.226,0.729-0.498,1.029-0.819
		c0.299-0.321,0.535-0.675,0.705-1.06l3.02,0.867c-0.578,1.264-1.535,2.296-2.875,3.1
		C452.488,126.006,450.932,126.407,449.154,126.407z M454.26,116.418c-0.063-0.707-0.24-1.359-0.529-1.959s-0.658-1.108-1.107-1.526
		c-0.449-0.417-0.975-0.743-1.574-0.979c-0.6-0.235-1.232-0.354-1.895-0.354c-0.664,0-1.291,0.118-1.879,0.354
		c-0.59,0.236-1.109,0.563-1.559,0.979c-0.449,0.418-0.814,0.927-1.092,1.526c-0.279,0.6-0.449,1.252-0.514,1.959H454.26z"/>
	<path fill="#C6C4C6" d="M475.717,126.086h-3.533v-9.411c0-1.584-0.252-2.735-0.754-3.453c-0.504-0.717-1.248-1.076-2.232-1.076
		c-0.516,0-1.029,0.097-1.543,0.289c-0.514,0.193-0.996,0.466-1.445,0.819s-0.852,0.771-1.205,1.253
		c-0.352,0.481-0.625,1.012-0.818,1.59v9.989h-3.533v-16.799h3.213v3.373c0.643-1.135,1.572-2.029,2.793-2.683
		c1.221-0.652,2.57-0.979,4.049-0.979c1.006,0,1.83,0.183,2.473,0.546c0.643,0.364,1.15,0.862,1.525,1.494s0.637,1.359,0.787,2.184
		c0.148,0.825,0.225,1.697,0.225,2.618V126.086z"/>
</g>
<g>
</g>
<g>
</g>
<g>
</g>
<g>
</g>
<g>
</g>
<g>
</g>
<g>
</g>
<g>
</g>
<g>
</g>
<g>
</g>
<g>
</g>
<g>
</g>
<g>
</g>
<g>
</g>
<g>
</g>
</svg>
